

<svg width="529.401" height="78.201" viewBox="0 0 529.401 78.201" xmlns="http://www.w3.org/2000/svg"><g id="svgGroup" stroke-linecap="round" fill-rule="evenodd" font-size="9pt" stroke="#000" stroke-width="1.89mm" fill="#ffffff" style="stroke:#000;stroke-width:0.59mm;fill:#ffffff"><path d="M 189.8 55.801 L 189.8 40.401 L 177.8 40.401 L 177.8 27.601 L 190.6 27.001 L 192.8 12.001 L 207 12.001 L 207 27.001 L 226.8 27.001 L 226.8 40.401 L 207 40.401 L 207 55.501 A 18.11 18.11 0 0 0 207.118 57.641 Q 207.247 58.717 207.514 59.609 A 7.748 7.748 0 0 0 208.1 61.051 Q 209.2 63.101 211.35 63.951 A 11.06 11.06 0 0 0 213.392 64.524 Q 214.875 64.801 216.7 64.801 A 26.548 26.548 0 0 0 219.813 64.625 A 22.03 22.03 0 0 0 221.55 64.351 A 32.382 32.382 0 0 0 225.009 63.464 A 28.802 28.802 0 0 0 225.8 63.201 L 228.8 75.601 Q 225.5 76.501 221.4 77.351 A 39.577 39.577 0 0 1 216.762 78.014 A 53.274 53.274 0 0 1 212.2 78.201 Q 206.368 78.201 202.206 76.784 A 17.796 17.796 0 0 1 199.1 75.401 Q 194.2 72.601 192 67.551 A 25.698 25.698 0 0 1 190.221 61.347 A 34.895 34.895 0 0 1 189.8 55.801 Z M 372.6 56.401 L 372.6 20.801 L 357.6 20.801 L 357.6 7.401 L 389.8 7.401 L 389.8 57.001 Q 389.8 61.301 392.25 62.851 Q 394.7 64.401 397.3 64.401 A 15.973 15.973 0 0 0 399.966 64.169 A 18.178 18.178 0 0 0 400.6 64.051 A 29.705 29.705 0 0 0 401.945 63.739 Q 403.125 63.438 404.5 63.001 L 408.2 75.601 A 108.145 108.145 0 0 1 404.389 76.672 A 78.552 78.552 0 0 1 400.9 77.501 A 28.206 28.206 0 0 1 398.2 77.927 Q 396.753 78.089 395.085 78.155 A 60.428 60.428 0 0 1 392.7 78.201 A 32.872 32.872 0 0 1 392.544 78.2 Q 382.661 78.153 377.65 72.151 A 21.117 21.117 0 0 1 373.281 63.032 A 30.599 30.599 0 0 1 372.6 56.401 Z M 17.2 77.001 L 0 77.001 L 0 12.001 L 24.4 12.001 A 42.837 42.837 0 0 1 32.622 12.762 A 36.116 36.116 0 0 1 37.3 14.001 Q 43.2 16.001 46.8 20.701 A 16.13 16.13 0 0 1 49.441 26.069 Q 50.1 28.337 50.306 31.046 A 33.699 33.699 0 0 1 50.4 33.601 A 28.117 28.117 0 0 1 49.887 39.125 Q 49.192 42.594 47.555 45.328 A 16.917 16.917 0 0 1 46.75 46.551 Q 43.1 51.601 37.15 54.001 A 33.622 33.622 0 0 1 24.93 56.397 A 38.256 38.256 0 0 1 24.4 56.401 L 17.2 56.401 L 17.2 77.001 Z M 271 77.001 L 253.8 77.001 L 253.8 26.801 Q 253.8 21.201 256.2 16.501 A 17.201 17.201 0 0 1 262.136 9.946 A 21.555 21.555 0 0 1 263.7 9.001 A 20.609 20.609 0 0 1 268.756 7.086 Q 271.139 6.505 273.945 6.305 A 43.027 43.027 0 0 1 277 6.201 A 42.326 42.326 0 0 1 282.799 6.584 A 36.107 36.107 0 0 1 285.45 7.051 A 112.608 112.608 0 0 1 288.724 7.804 Q 290.215 8.172 291.537 8.548 A 64.907 64.907 0 0 1 292.4 8.801 L 289.2 21.401 A 25.272 25.272 0 0 0 286.679 20.595 A 32.349 32.349 0 0 0 284.5 20.101 Q 281.9 19.601 279.2 19.601 Q 276.604 19.601 274.809 20.274 A 6.658 6.658 0 0 0 273.1 21.201 A 4.774 4.774 0 0 0 271.558 23.314 Q 271.236 24.137 271.099 25.174 A 12.515 12.515 0 0 0 271 26.801 L 271 77.001 Z M 141.2 77.001 L 124 77.001 L 124 27.001 L 138.1 27.001 L 139.4 37.601 L 139.8 37.601 A 28.125 28.125 0 0 1 143.113 32.974 A 20.258 20.258 0 0 1 148.55 28.601 Q 153.7 25.801 159.3 25.801 A 36.02 36.02 0 0 1 161.313 25.853 Q 163.181 25.958 164.457 26.273 A 9.286 9.286 0 0 1 164.75 26.351 A 31.002 31.002 0 0 1 167.246 27.175 A 37.143 37.143 0 0 1 168.8 27.801 L 165.4 42.201 Q 163.2 41.501 161.3 41.151 A 19.064 19.064 0 0 0 159.624 40.924 Q 158.799 40.847 157.863 40.818 A 37.673 37.673 0 0 0 156.7 40.801 A 15.29 15.29 0 0 0 150.57 42.118 A 19.563 19.563 0 0 0 148.2 43.351 A 14.36 14.36 0 0 0 144.626 46.498 Q 143.368 48.012 142.286 49.994 A 30.232 30.232 0 0 0 141.2 52.201 L 141.2 77.001 Z M 457.2 77.001 L 440 77.001 L 440 40.401 L 421 40.401 L 421 27.001 L 457.2 27.001 L 457.2 77.001 Z M 83.6 78.201 Q 77 78.201 71.1 75.101 Q 65.2 72.001 61.5 66.151 A 23.391 23.391 0 0 1 58.32 57.881 A 31.809 31.809 0 0 1 57.8 52.001 A 31.047 31.047 0 0 1 58.508 45.207 A 23.074 23.074 0 0 1 61.5 37.851 Q 65.2 32.001 71.1 28.901 Q 77 25.801 83.6 25.801 Q 90.2 25.801 96.1 28.901 Q 102 32.001 105.7 37.851 A 23.391 23.391 0 0 1 108.88 46.12 A 31.809 31.809 0 0 1 109.4 52.001 A 31.047 31.047 0 0 1 108.692 58.794 A 23.074 23.074 0 0 1 105.7 66.151 Q 102 72.001 96.1 75.101 Q 90.2 78.201 83.6 78.201 Z M 323.6 78.201 Q 317 78.201 311.1 75.101 Q 305.2 72.001 301.5 66.151 A 23.391 23.391 0 0 1 298.32 57.881 A 31.809 31.809 0 0 1 297.8 52.001 A 31.047 31.047 0 0 1 298.508 45.207 A 23.074 23.074 0 0 1 301.5 37.851 Q 305.2 32.001 311.1 28.901 Q 317 25.801 323.6 25.801 Q 330.2 25.801 336.1 28.901 Q 342 32.001 345.7 37.851 A 23.391 23.391 0 0 1 348.88 46.12 A 31.809 31.809 0 0 1 349.4 52.001 A 31.047 31.047 0 0 1 348.692 58.794 A 23.074 23.074 0 0 1 345.7 66.151 Q 342 72.001 336.1 75.101 Q 330.2 78.201 323.6 78.201 Z M 503.6 78.201 Q 497 78.201 491.1 75.101 Q 485.2 72.001 481.5 66.151 A 23.391 23.391 0 0 1 478.32 57.881 A 31.809 31.809 0 0 1 477.8 52.001 A 31.047 31.047 0 0 1 478.508 45.207 A 23.074 23.074 0 0 1 481.5 37.851 Q 485.2 32.001 491.1 28.901 Q 497 25.801 503.6 25.801 Q 510.2 25.801 516.1 28.901 Q 522 32.001 525.7 37.851 A 23.391 23.391 0 0 1 528.88 46.12 A 31.809 31.809 0 0 1 529.4 52.001 A 31.047 31.047 0 0 1 528.692 58.794 A 23.074 23.074 0 0 1 525.7 66.151 Q 522 72.001 516.1 75.101 Q 510.2 78.201 503.6 78.201 Z M 286.8 40.401 L 241 40.401 L 241 27.601 L 254.4 27.001 L 286.8 27.001 L 286.8 40.401 Z M 83.6 64.401 A 9.153 9.153 0 0 0 85.62 64.19 A 6.276 6.276 0 0 0 88.3 62.901 Q 90.1 61.401 90.95 58.601 Q 91.715 56.079 91.792 52.748 A 32.664 32.664 0 0 0 91.8 52.001 Q 91.8 48.201 90.95 45.401 A 10.989 10.989 0 0 0 90.112 43.358 Q 89.425 42.087 88.441 41.222 A 6.853 6.853 0 0 0 88.3 41.101 A 6.276 6.276 0 0 0 85.62 39.811 A 9.153 9.153 0 0 0 83.6 39.601 A 9.153 9.153 0 0 0 81.58 39.811 A 6.276 6.276 0 0 0 78.9 41.101 Q 77.1 42.601 76.25 45.401 Q 75.485 47.922 75.408 51.253 A 32.664 32.664 0 0 0 75.4 52.001 Q 75.4 55.801 76.25 58.601 A 10.989 10.989 0 0 0 77.088 60.643 Q 77.775 61.914 78.759 62.779 A 6.853 6.853 0 0 0 78.9 62.901 A 6.276 6.276 0 0 0 81.58 64.19 A 9.153 9.153 0 0 0 83.6 64.401 Z M 323.6 64.401 A 9.153 9.153 0 0 0 325.62 64.19 A 6.276 6.276 0 0 0 328.3 62.901 Q 330.1 61.401 330.95 58.601 Q 331.715 56.079 331.792 52.748 A 32.664 32.664 0 0 0 331.8 52.001 Q 331.8 48.201 330.95 45.401 A 10.989 10.989 0 0 0 330.112 43.358 Q 329.425 42.087 328.441 41.222 A 6.853 6.853 0 0 0 328.3 41.101 A 6.276 6.276 0 0 0 325.62 39.811 A 9.153 9.153 0 0 0 323.6 39.601 A 9.153 9.153 0 0 0 321.58 39.811 A 6.276 6.276 0 0 0 318.9 41.101 Q 317.1 42.601 316.25 45.401 Q 315.485 47.922 315.408 51.253 A 32.664 32.664 0 0 0 315.4 52.001 Q 315.4 55.801 316.25 58.601 A 10.989 10.989 0 0 0 317.088 60.643 Q 317.775 61.914 318.759 62.779 A 6.853 6.853 0 0 0 318.9 62.901 A 6.276 6.276 0 0 0 321.58 64.19 A 9.153 9.153 0 0 0 323.6 64.401 Z M 503.6 64.401 A 9.153 9.153 0 0 0 505.62 64.19 A 6.276 6.276 0 0 0 508.3 62.901 Q 510.1 61.401 510.95 58.601 Q 511.715 56.079 511.792 52.748 A 32.664 32.664 0 0 0 511.8 52.001 Q 511.8 48.201 510.95 45.401 A 10.989 10.989 0 0 0 510.112 43.358 Q 509.425 42.087 508.441 41.222 A 6.853 6.853 0 0 0 508.3 41.101 A 6.276 6.276 0 0 0 505.62 39.811 A 9.153 9.153 0 0 0 503.6 39.601 A 9.153 9.153 0 0 0 501.58 39.811 A 6.276 6.276 0 0 0 498.9 41.101 Q 497.1 42.601 496.25 45.401 Q 495.485 47.922 495.408 51.253 A 32.664 32.664 0 0 0 495.4 52.001 Q 495.4 55.801 496.25 58.601 A 10.989 10.989 0 0 0 497.088 60.643 Q 497.775 61.914 498.759 62.779 A 6.853 6.853 0 0 0 498.9 62.901 A 6.276 6.276 0 0 0 501.58 64.19 A 9.153 9.153 0 0 0 503.6 64.401 Z M 444.381 19.747 A 13.759 13.759 0 0 0 448 20.201 Q 452.8 20.201 455.9 17.451 A 8.857 8.857 0 0 0 458.469 13.627 A 10.586 10.586 0 0 0 459 10.201 Q 459 5.701 455.9 2.851 A 10.392 10.392 0 0 0 451.716 0.498 A 13.239 13.239 0 0 0 448 0.001 A 14.527 14.527 0 0 0 446.051 0.127 A 10.679 10.679 0 0 0 440.1 2.851 A 9.267 9.267 0 0 0 437.593 6.579 A 10.649 10.649 0 0 0 437 10.201 A 12.439 12.439 0 0 0 437.023 10.961 A 9.062 9.062 0 0 0 440.1 17.451 A 10.512 10.512 0 0 0 444.381 19.747 Z M 17.2 25.601 L 17.2 42.801 L 23.6 42.801 Q 26.851 42.801 29.025 41.805 A 7.223 7.223 0 0 0 31.15 40.351 A 8.098 8.098 0 0 0 33.304 36.367 A 12.186 12.186 0 0 0 33.6 33.601 A 11.63 11.63 0 0 0 33.394 31.331 Q 33.14 30.054 32.57 29.092 A 5.339 5.339 0 0 0 31 27.401 A 8.882 8.882 0 0 0 28.524 26.235 Q 27.358 25.878 25.945 25.722 A 21.377 21.377 0 0 0 23.6 25.601 L 17.2 25.601 Z" vector-effect="non-scaling-stroke"/></g></svg>